<?xml version="1.0" standalone="no"?>
<!DOCTYPE svg PUBLIC "-//W3C//DTD SVG 20010904//EN"
 "http://www.w3.org/TR/2001/REC-SVG-20010904/DTD/svg10.dtd">
<svg version="1.0" xmlns="http://www.w3.org/2000/svg"
 width="600.000000pt" height="600.000000pt" viewBox="0 0 600.000000 600.000000"
 preserveAspectRatio="xMidYMid meet">

<g transform="translate(0.000000,600.000000) scale(0.100000,-0.100000)"
fill="#000000" stroke="none">
<path d="M3533 4596 c-139 -35 -251 -118 -336 -248 l-52 -80 -40 6 c-22 3 -69
10 -105 16 -208 31 -446 -12 -689 -126 -51 -24 -120 -62 -152 -84 -32 -22 -61
-40 -65 -40 -3 0 -36 25 -72 56 -37 30 -101 72 -142 92 -70 35 -81 37 -170 37
-89 0 -99 -2 -158 -34 -103 -56 -253 -231 -356 -416 -151 -271 -229 -569 -267
-1015 -10 -122 -9 -150 10 -289 14 -103 18 -158 11 -165 -6 -6 -34 -4 -82 7
-93 22 -120 22 -149 -2 -21 -17 -24 -28 -24 -88 1 -61 5 -77 48 -160 28 -53
73 -118 107 -156 58 -63 240 -196 332 -243 136 -69 344 -90 448 -45 74 33 113
63 150 116 17 25 36 45 43 45 7 -1 39 -37 71 -80 157 -210 450 -347 564 -263
59 43 80 151 48 256 -19 65 -10 70 95 56 299 -42 544 -6 796 117 62 30 136 73
165 95 54 40 78 48 78 27 0 -7 -7 -51 -15 -98 -21 -121 -19 -192 6 -243 47
-94 98 -121 213 -115 165 9 258 96 341 318 38 102 47 111 82 78 45 -41 140
-98 201 -119 89 -31 239 -42 326 -24 84 17 291 117 352 169 51 43 115 164 139
261 45 182 -32 515 -135 583 -45 30 -75 23 -122 -31 -27 -31 -40 -39 -48 -31
-6 6 -20 60 -30 120 -46 272 -142 554 -284 829 -183 356 -343 578 -506 702
-134 103 -200 139 -325 179 -126 40 -224 50 -302 30z m196 -51 c129 -30 147
-37 226 -82 165 -94 270 -188 393 -351 70 -92 160 -225 169 -250 4 -9 31 -59
61 -110 55 -94 142 -277 142 -299 0 -7 15 -47 34 -90 67 -152 143 -447 166
-638 14 -123 20 -147 33 -142 7 2 37 39 67 82 88 126 105 125 158 -1 70 -168
88 -301 57 -432 -35 -146 -95 -227 -231 -306 -200 -117 -399 -129 -584 -36
-64 32 -198 152 -205 183 -3 12 6 83 20 157 71 373 29 696 -132 1018 -61 122
-105 176 -150 185 -15 3 -45 10 -65 15 -26 7 -38 7 -38 0 0 -6 29 -54 65 -107
95 -142 174 -338 175 -433 0 -43 -40 -37 -106 17 -30 25 -60 42 -66 39 -6 -4
-8 -28 -5 -61 4 -42 12 -60 33 -80 26 -24 27 -27 21 -102 -3 -43 -13 -113 -22
-156 -20 -93 -79 -277 -101 -310 -9 -13 -15 -25 -14 -27 1 -2 -3 -16 -9 -31
-6 -16 -11 -33 -11 -38 0 -6 -4 -8 -9 -5 -5 3 -8 0 -7 -7 2 -21 -48 -136 -63
-142 -10 -4 -12 3 -6 32 4 21 13 49 21 63 20 36 44 100 44 116 0 27 -22 13
-98 -63 -100 -101 -166 -151 -277 -212 -185 -102 -332 -141 -560 -148 -175 -5
-214 -1 -400 47 -139 35 -284 99 -347 152 -14 13 -49 41 -77 63 -28 22 -51 42
-51 45 0 3 -20 27 -44 54 -24 27 -63 83 -86 125 -52 91 -48 87 -59 75 -12 -12
29 -199 64 -294 15 -41 45 -111 66 -155 22 -44 31 -69 20 -55 -32 40 -87 149
-109 220 -22 68 -61 251 -63 291 0 13 -3 76 -6 139 -5 122 9 285 33 385 23 95
95 274 138 345 109 180 220 283 394 362 46 21 81 48 134 103 121 128 271 219
414 251 146 32 362 10 697 -72 26 -6 27 -5 17 20 -69 183 -156 261 -325 289
-63 11 -79 17 -77 29 7 44 83 156 143 213 125 117 249 155 398 120z m-1938
-375 c20 -6 64 -28 98 -50 34 -22 65 -40 69 -40 17 0 122 -116 122 -135 0 -16
-26 -39 -99 -88 -180 -122 -280 -255 -289 -382 -3 -53 0 -68 30 -126 l33 -65
-22 -130 c-33 -196 -46 -403 -40 -634 6 -223 19 -303 77 -484 40 -125 37 -156
-24 -245 -79 -115 -150 -146 -312 -139 -81 4 -113 10 -155 29 -30 14 -74 35
-99 46 -51 23 -189 123 -257 186 -53 49 -125 146 -153 208 -25 57 -27 147 -3
156 9 4 65 -6 123 -21 59 -15 116 -26 127 -24 20 3 20 3 2 78 -41 170 -50 455
-20 635 5 33 17 114 26 180 10 66 24 135 31 154 8 18 14 42 14 54 0 37 62 201
121 322 61 125 167 276 278 397 102 110 208 149 322 118z m1456 -45 c109 -18
143 -31 143 -57 0 -37 -76 -59 -243 -69 -180 -10 -347 -11 -399 -3 -55 9 -51
37 10 64 85 38 209 64 382 79 8 0 56 -6 107 -14z m-937 -226 c0 -69 -173 -224
-347 -312 -51 -26 -159 -54 -169 -44 -14 13 8 57 52 106 82 92 228 184 367
232 93 32 97 33 97 18z m-50 -173 c0 -8 12 -23 26 -33 23 -17 24 -21 13 -46
-21 -46 -195 -177 -213 -160 -3 4 -6 24 -6 45 0 28 -4 38 -16 38 -35 0 -4 37
86 102 52 37 98 68 103 68 4 0 7 -6 7 -14z m-280 -1926 c6 -11 8 -20 6 -20 -3
0 -10 9 -16 20 -6 11 -8 20 -6 20 3 0 10 -9 16 -20z m54 -82 c20 -27 33 -48
30 -48 -9 0 -43 42 -60 75 -20 37 -16 33 30 -27z m109 -127 c-2 -3 -20 12 -41
34 l-37 39 41 -35 c22 -19 39 -36 37 -38z"/>
<path d="M3140 3384 c-59 -33 -99 -72 -96 -92 4 -26 40 -26 72 1 37 31 80 53
121 62 41 8 51 24 28 42 -29 20 -75 15 -125 -13z"/>
<path d="M2108 3334 c-8 -7 -11 -44 -4 -44 33 0 126 -27 178 -51 89 -43 129
-29 71 26 -50 46 -221 94 -245 69z"/>
<path d="M3234 3238 c-149 -109 -227 -173 -236 -193 -23 -51 41 -84 255 -130
146 -32 177 -28 177 23 0 48 -34 67 -165 92 -33 7 -64 14 -68 17 -12 7 30 49
90 89 45 30 53 40 53 66 0 57 -53 74 -106 36z"/>
<path d="M2082 3168 c-21 -21 -14 -63 16 -90 15 -14 52 -39 83 -57 88 -49 88
-49 8 -120 -68 -61 -70 -65 -67 -105 3 -38 5 -41 36 -44 25 -3 42 5 78 35 84
70 184 172 184 188 0 24 -41 57 -163 135 -109 69 -150 83 -175 58z"/>
<path d="M3590 2845 c-18 -22 24 -87 54 -83 33 5 34 51 0 77 -32 25 -38 26
-54 6z"/>
<path d="M3474 2795 c-9 -21 35 -87 55 -83 22 4 26 44 7 74 -18 27 -53 32 -62
9z"/>
<path d="M3070 2733 c-232 -13 -538 -73 -737 -145 l-35 -13 6 -95 c9 -130 62
-286 122 -364 51 -65 141 -128 228 -158 91 -33 283 -33 379 0 177 61 288 186
318 357 22 127 -6 393 -44 417 -11 7 -118 8 -237 1z"/>
<path d="M1995 2660 c-20 -38 -19 -66 2 -75 25 -9 53 29 53 71 0 27 -4 34 -20
34 -11 0 -26 -12 -35 -30z"/>
<path d="M2120 2661 c-5 -11 -10 -33 -10 -50 0 -26 4 -31 25 -31 20 0 25 6 31
35 3 19 4 42 0 50 -8 21 -33 19 -46 -4z"/>
</g>
</svg>
